# Exported by split_tank_mesh.py
o ztz88a_road_r0
usemtl mat_61
v 33.4543 -23.9302 0.0045
v 28.7552 23.0880 17.4350
v 28.7552 -23.9302 17.4350
v 33.4543 23.0880 0.0045
v 28.7552 -23.9302 -17.4413
v 28.7552 23.0880 -17.4413
v 15.9965 23.0880 30.2173
v 15.9965 -23.9302 30.2173
v 15.9965 -23.9302 30.2173
v -1.4315 23.0880 34.8807
v -1.4315 -23.9302 34.8807
v 15.9965 23.0880 30.2173
v -18.8892 23.0880 30.2173
v -18.8892 -23.9302 30.2173
v -31.6479 23.0880 17.4350
v -31.6479 -23.9302 17.4350
v -31.6479 -23.9302 17.4350
v -36.3172 23.0880 0.0045
v -36.3172 -23.9302 0.0045
v -31.6479 23.0880 17.4350
v -31.6479 23.0880 -17.4413
v -31.6479 -23.9302 -17.4413
v -18.8892 23.0880 -30.2083
v -18.8892 -23.9302 -30.2083
v -18.8892 -23.9302 -30.2083
v -1.4315 23.0880 -34.8870
v -1.4315 -23.9302 -34.8870
v -18.8892 23.0880 -30.2083
v 15.9965 23.0880 -30.2083
v 15.9965 -23.9302 -30.2083
v 28.7552 23.0880 -17.4413
v 28.7552 -23.9302 -17.4413
v -18.8892 -23.9302 -30.2083
v -1.4315 -23.9302 34.8807
v -18.8892 -23.9302 30.2173
v -1.4315 -23.9302 -34.8870
v 15.9965 -23.9302 30.2173
v 15.9965 -23.9302 -30.2083
v 28.7552 -23.9302 -17.4413
v 28.7552 -23.9302 17.4350
v 33.4543 -23.9302 0.0045
v -31.6479 -23.9302 -17.4413
v -31.6479 -23.9302 17.4350
v -36.3172 -23.9302 0.0045
v 33.4543 23.0880 0.0045
v 24.0860 23.0880 14.7287
v 28.7552 23.0880 17.4350
v 28.0117 23.8645 0.0045
v 28.7552 23.0880 -17.4413
v 24.0860 23.8645 -14.7350
v 15.9965 23.0880 -30.2083
v 13.2901 23.8645 -25.5143
v -1.4315 23.0880 -34.8870
v -1.4315 23.8645 -29.4744
v -18.8892 23.0880 -30.2083
v -16.1828 23.8645 -25.5143
v -31.6479 23.0880 -17.4413
v -26.9489 23.8645 -14.7350
v -36.3172 23.0880 0.0045
v -30.9044 23.8645 0.0045
v -31.6479 23.0880 17.4350
v -26.9489 23.8645 14.7287
v -18.8892 23.0880 30.2173
v -16.1828 23.8645 25.5233
v -1.4315 23.0880 34.8807
v -1.4315 23.8645 29.4681
v 15.9965 23.0880 30.2173
v 13.2901 23.8645 25.5233
v 28.0117 23.8645 0.0045
v 21.4391 6.3107 13.2150
v 24.0860 23.0880 14.7287
v 24.9782 7.0872 0.0045
v 11.7734 7.0872 22.8782
v 13.2901 23.8645 25.5233
v -1.4315 7.0872 26.4254
v -1.4315 23.8645 29.4681
v -1.4315 23.8645 29.4681
v -14.6660 7.0872 22.8782
v -16.1828 23.8645 25.5233
v -1.4315 7.0872 26.4254
v -24.3317 7.0872 13.2150
v -26.9489 23.8645 14.7287
v -27.8708 7.0872 0.0045
v -30.9044 23.8645 0.0045
v -30.9044 23.8645 0.0045
v -24.3317 7.0872 -13.2213
v -26.9489 23.8645 -14.7350
v -27.8708 7.0872 0.0045
v -14.6660 7.0872 -22.8845
v -16.1828 23.8645 -25.5143
v -1.4315 7.0872 -26.4317
v -1.4315 23.8645 -29.4744
v -1.4315 23.8645 -29.4744
v 11.7734 7.0872 -22.8845
v 13.2901 23.8645 -25.5143
v -1.4315 7.0872 -26.4317
v 21.4391 7.0872 -13.2213
v 24.0860 23.8645 -14.7350
v 24.9782 7.0872 0.0045
v 28.0117 23.8645 0.0045
v -1.4315 7.0872 26.4254
v 11.7734 7.0872 22.8782
v -14.6660 7.0872 22.8782
v 21.4391 6.3107 13.2150
v -24.3317 7.0872 13.2150
v 24.9782 7.0872 0.0045
v -27.8708 7.0872 0.0045
v 21.4391 7.0872 -13.2213
v -24.3317 7.0872 -13.2213
v 11.7734 7.0872 -22.8845
v -14.6660 7.0872 -22.8845
v -1.4315 7.0872 -26.4317
v 7.1041 6.2560 -4.9341
v 5.7955 20.8241 4.1786
v 7.1041 6.2560 4.9278
v 5.7955 20.8241 -4.1849
v -1.4315 6.2560 -9.8728
v -1.4315 20.8241 -8.3744
v -9.9967 6.2560 -4.9341
v -8.6882 20.8241 -4.1849
v -9.9967 6.2560 4.9278
v -8.6882 20.8241 4.1786
v -1.4315 6.2560 9.8665
v -1.4315 20.8241 8.3681
v 7.1041 6.2560 4.9278
v 5.7955 20.8241 4.1786
v 5.7955 20.8241 -4.1849
v -1.4315 23.9302 0.0045
v 5.7955 20.8241 4.1786
v -1.4315 20.8241 -8.3744
v -8.6882 20.8241 -4.1849
v -8.6882 20.8241 4.1786
v -1.4315 20.8241 8.3681
vn 0.9960 0.0000 0.0896
vn 0.9068 0.0000 0.4216
vn 0.8182 0.0000 0.5750
vn 0.9960 0.0000 -0.0894
vn 0.9067 0.0000 -0.4217
vn 0.8180 0.0000 -0.5752
vn 0.5755 0.0000 0.8178
vn 0.4210 0.0000 0.9070
vn 0.0890 0.0000 0.9960
vn -0.0886 0.0000 0.9961
vn -0.4208 0.0000 0.9072
vn -0.5754 0.0000 0.8179
vn -0.8185 0.0000 0.5745
vn -0.9072 0.0000 0.4207
vn -0.9960 0.0000 0.0890
vn -0.9961 0.0000 -0.0888
vn -0.9072 0.0000 -0.4207
vn -0.8183 0.0000 -0.5748
vn -0.5753 0.0000 -0.8180
vn -0.4211 0.0000 -0.9070
vn -0.0888 0.0000 -0.9960
vn 0.0893 0.0000 -0.9960
vn 0.4214 0.0000 -0.9069
vn 0.5754 0.0000 -0.8179
vn 0.0000 -1.0000 0.0000
vn 0.0000 1.0000 0.0000
vn -0.9808 0.1774 -0.0813
vn -0.8941 0.1781 -0.4110
vn -0.8032 0.1783 -0.5684
vn -0.9800 0.1775 0.0901
vn -0.5609 0.1778 -0.8086
vn -0.4118 0.1780 -0.8937
vn -0.0877 0.1779 -0.9801
vn 0.0874 0.1779 -0.9802
vn 0.4141 0.1780 -0.8927
vn 0.5661 0.1777 -0.8049
vn 0.8054 0.1771 -0.5656
vn 0.8929 0.1768 -0.4141
vn 0.9803 0.1770 -0.0879
vn 0.9803 0.1771 0.0874
vn 0.8927 0.1769 0.4144
vn 0.8052 0.1769 0.5660
vn 0.5661 0.1771 0.8051
vn 0.4146 0.1775 0.8925
vn 0.0875 0.1776 0.9802
vn -0.0879 0.1777 0.9802
vn -0.4147 0.1775 0.8925
vn -0.5659 0.1775 0.8051
vn -0.8049 0.1779 0.5661
vn -0.8928 0.1779 0.4139
vn 0.9401 0.1012 -0.3254
vn 0.9402 0.1012 0.3252
vn 0.7527 0.1009 0.6506
vn 0.7527 0.1009 -0.6506
vn 0.1891 0.1006 -0.9768
vn -0.1873 0.1006 -0.9771
vn -0.7519 0.1009 -0.6515
vn -0.9401 0.1012 -0.3257
vn -0.9400 0.1012 0.3258
vn -0.7519 0.1009 0.6515
vn -0.1875 0.1006 0.9771
vn 0.1890 0.1007 0.9768
vt 0.230476 1.976592
vt 0.278329 1.958037
vt 0.230476 1.958037
vt 0.278329 1.976592
vt 0.230476 1.994171
vt 0.278329 1.994171
vt 0.278329 1.940458
vt 0.230476 1.940458
vt 0.230476 1.994171
vt 0.278329 1.976592
vt 0.230476 1.976592
vt 0.278329 1.994171
vt 0.278329 1.958037
vt 0.230476 1.958037
vt 0.278329 1.940458
vt 0.230476 1.940458
vt 0.230476 1.994171
vt 0.278329 1.976592
vt 0.230476 1.976592
vt 0.278329 1.994171
vt 0.278329 1.958037
vt 0.230476 1.958037
vt 0.278329 1.940458
vt 0.230476 1.940458
vt 0.230476 1.994171
vt 0.278329 1.976592
vt 0.230476 1.976592
vt 0.278329 1.994171
vt 0.278329 1.958037
vt 0.230476 1.958037
vt 0.278329 1.940458
vt 0.230476 1.940458
vt 0.170904 1.921903
vt 0.227546 1.955107
vt 0.227546 1.937529
vt 0.162114 1.937529
vt 0.218757 1.969756
vt 0.162114 1.954131
vt 0.170904 1.969756
vt 0.203131 1.978545
vt 0.185553 1.978545
vt 0.186529 1.913114
vt 0.218757 1.922880
vt 0.204108 1.913114
vt 0.204108 1.913114
vt 0.214850 1.925810
vt 0.218757 1.922880
vt 0.202155 1.917997
vt 0.186529 1.913114
vt 0.187506 1.917997
vt 0.170904 1.921903
vt 0.174810 1.925810
vt 0.162114 1.937529
vt 0.166997 1.938505
vt 0.162114 1.954131
vt 0.166997 1.953154
vt 0.170904 1.969756
vt 0.174810 1.965850
vt 0.185553 1.978545
vt 0.187506 1.973663
vt 0.203131 1.978545
vt 0.202155 1.973663
vt 0.218757 1.969756
vt 0.214850 1.965850
vt 0.227546 1.955107
vt 0.222663 1.953154
vt 0.227546 1.937529
vt 0.222663 1.938505
vt 0.417982 1.976592
vt 0.403333 1.993194
vt 0.403333 1.976592
vt 0.417982 1.993194
vt 0.387707 1.993194
vt 0.387707 1.976592
vt 0.373058 1.993194
vt 0.373058 1.976592
vt 0.417982 1.976592
vt 0.403333 1.993194
vt 0.403333 1.976592
vt 0.417982 1.993194
vt 0.387707 1.993194
vt 0.387707 1.976592
vt 0.373058 1.993194
vt 0.373058 1.976592
vt 0.417982 1.976592
vt 0.403333 1.993194
vt 0.403333 1.976592
vt 0.417982 1.993194
vt 0.387707 1.993194
vt 0.387707 1.976592
vt 0.373058 1.993194
vt 0.373058 1.976592
vt 0.417982 1.976592
vt 0.403333 1.993194
vt 0.403333 1.976592
vt 0.417982 1.993194
vt 0.387707 1.993194
vt 0.387707 1.976592
vt 0.373058 1.993194
vt 0.373058 1.976592
vt 0.202155 1.917997
vt 0.187506 1.917997
vt 0.214850 1.925810
vt 0.174810 1.925810
vt 0.222663 1.938505
vt 0.166997 1.938505
vt 0.222663 1.953154
vt 0.166997 1.953154
vt 0.214850 1.965850
vt 0.174810 1.965850
vt 0.202155 1.973663
vt 0.187506 1.973663
vt 0.208991 1.982452
vt 0.218757 1.996124
vt 0.218757 1.982452
vt 0.208991 1.996124
vt 0.199225 1.982452
vt 0.199225 1.996124
vt 0.189459 1.982452
vt 0.189459 1.996124
vt 0.179693 1.982452
vt 0.179693 1.996124
vt 0.169927 1.982452
vt 0.169927 1.996124
vt 0.160161 1.982452
vt 0.160161 1.996124
vt 0.117191 1.981475
vt 0.122074 1.989288
vt 0.125980 1.981475
vt 0.113285 1.989288
vt 0.117191 1.997101
vt 0.125980 1.997101
vt 0.130863 1.989288
f 1/1/1 2/2/2 3/3/3
f 2/2/2 1/1/1 4/4/4
f 5/5/5 4/4/4 1/1/1
f 4/4/4 5/5/5 6/6/6
f 7/7/7 3/3/3 2/2/2
f 3/3/3 7/7/7 8/8/8
f 9/9/8 10/10/9 11/11/10
f 10/10/9 9/9/8 12/12/7
f 13/13/11 11/11/10 10/10/9
f 11/11/10 13/13/11 14/14/12
f 15/15/13 14/14/12 13/13/11
f 14/14/12 15/15/13 16/16/14
f 17/17/14 18/18/15 19/19/16
f 18/18/15 17/17/14 20/20/13
f 21/21/17 19/19/16 18/18/15
f 19/19/16 21/21/17 22/22/18
f 23/23/19 22/22/18 21/21/17
f 22/22/18 23/23/19 24/24/20
f 25/25/20 26/26/21 27/27/22
f 26/26/21 25/25/20 28/28/19
f 29/29/23 27/27/22 26/26/21
f 27/27/22 29/29/23 30/30/24
f 31/31/6 30/30/24 29/29/23
f 30/30/24 31/31/6 32/32/5
f 33/33/25 34/34/25 35/35/25
f 34/34/25 33/33/25 36/36/25
f 36/36/25 37/37/25 34/34/25
f 37/37/25 36/36/25 38/38/25
f 39/39/25 37/37/25 38/38/25
f 37/37/25 39/39/25 40/40/25
f 40/40/25 39/39/25 41/41/25
f 35/35/25 42/42/25 33/33/25
f 42/42/25 35/35/25 43/43/25
f 42/42/25 43/43/25 44/44/25
f 45/45/26 46/46/26 47/47/26
f 46/46/26 45/45/26 48/48/26
f 49/49/26 48/48/26 45/45/26
f 48/48/26 49/49/26 50/50/26
f 51/51/26 50/50/26 49/49/26
f 50/50/26 51/51/26 52/52/26
f 53/53/26 52/52/26 51/51/26
f 52/52/26 53/53/26 54/54/26
f 55/55/26 54/54/26 53/53/26
f 54/54/26 55/55/26 56/56/26
f 57/57/26 56/56/26 55/55/26
f 56/56/26 57/57/26 58/58/26
f 59/59/26 58/58/26 57/57/26
f 58/58/26 59/59/26 60/60/26
f 61/61/26 60/60/26 59/59/26
f 60/60/26 61/61/26 62/62/26
f 63/63/26 62/62/26 61/61/26
f 62/62/26 63/63/26 64/64/26
f 65/65/26 64/64/26 63/63/26
f 64/64/26 65/65/26 66/66/26
f 67/67/26 66/66/26 65/65/26
f 66/66/26 67/67/26 68/68/26
f 47/47/26 68/68/26 67/67/26
f 68/68/26 47/47/26 46/46/26
f 69/69/27 70/70/28 71/71/29
f 70/70/28 69/69/27 72/72/30
f 73/73/31 71/71/29 70/70/28
f 71/71/29 73/73/31 74/74/32
f 75/75/33 74/74/32 73/73/31
f 74/74/32 75/75/33 76/76/34
f 77/77/34 78/78/35 79/79/36
f 78/78/35 77/77/34 80/80/33
f 81/81/37 79/79/36 78/78/35
f 79/79/36 81/81/37 82/82/38
f 83/83/39 82/82/38 81/81/37
f 82/82/38 83/83/39 84/84/40
f 85/85/40 86/86/41 87/87/42
f 86/86/41 85/85/40 88/88/39
f 89/89/43 87/87/42 86/86/41
f 87/87/42 89/89/43 90/90/44
f 91/91/45 90/90/44 89/89/43
f 90/90/44 91/91/45 92/92/46
f 93/93/46 94/94/47 95/95/48
f 94/94/47 93/93/46 96/96/45
f 97/97/49 95/95/48 94/94/47
f 95/95/48 97/97/49 98/98/50
f 99/99/30 98/98/50 97/97/49
f 98/98/50 99/99/30 100/100/27
f 101/101/26 102/102/26 103/103/26
f 104/104/26 103/103/26 102/102/26
f 103/103/26 104/104/26 105/105/26
f 106/106/26 105/105/26 104/104/26
f 105/105/26 106/106/26 107/107/26
f 108/108/26 107/107/26 106/106/26
f 107/107/26 108/108/26 109/109/26
f 110/110/26 109/109/26 108/108/26
f 109/109/26 110/110/26 111/111/26
f 111/111/26 110/110/26 112/112/26
f 113/113/51 114/114/52 115/115/53
f 114/114/52 113/113/51 116/116/54
f 117/117/55 116/116/54 113/113/51
f 116/116/54 117/117/55 118/118/56
f 119/119/57 118/118/56 117/117/55
f 118/118/56 119/119/57 120/120/58
f 121/121/59 120/120/58 119/119/57
f 120/120/58 121/121/59 122/122/60
f 123/123/61 122/122/60 121/121/59
f 122/122/60 123/123/61 124/124/62
f 125/125/53 124/124/62 123/123/61
f 124/124/62 125/125/53 126/126/52
f 127/127/26 128/128/26 129/129/26
f 130/130/26 128/128/26 127/127/26
f 131/131/26 128/128/26 130/130/26
f 132/132/26 128/128/26 131/131/26
f 133/133/26 128/128/26 132/132/26
f 129/129/26 128/128/26 133/133/26
